<svg width="19" height="23" viewBox="0 0 19 23" fill="none" xmlns="http://www.w3.org/2000/svg">
<path d="M15.4195 12.3054C15.4415 10.5985 16.3581 8.98347 17.8123 8.08946C16.8949 6.77928 15.3584 5.9486 13.7597 5.89858C12.0547 5.71961 10.4017 6.91887 9.5328 6.91887C8.64711 6.91887 7.30934 5.91635 5.86879 5.94599C3.99108 6.00665 2.24059 7.07421 1.32705 8.71583C-0.636701 12.1158 0.828082 17.1125 2.70919 19.8608C3.65035 21.2065 4.7503 22.7097 6.18956 22.6564C7.59796 22.598 8.12397 21.7583 9.82403 21.7583C11.5083 21.7583 12.0018 22.6564 13.4703 22.6225C14.9815 22.598 15.9337 21.2708 16.8419 19.9123C17.5181 18.9534 18.0384 17.8937 18.3836 16.7722C16.6076 16.0211 15.4216 14.2337 15.4195 12.3054Z" fill="#222222"/>
<path d="M12.6458 4.0912C13.4698 3.102 13.8758 1.83056 13.7775 0.546875C12.5186 0.679099 11.3557 1.28077 10.5205 2.23202C9.70389 3.16143 9.27889 4.4105 9.35924 5.64512C10.6186 5.65809 11.8567 5.07272 12.6458 4.0912Z" fill="#222222"/>
</svg>
