<svg width="20" height="19" viewBox="0 0 20 19" fill="none" xmlns="http://www.w3.org/2000/svg">
<path d="M16.7045 7.26311C16.7166 6.3432 16.9669 5.44124 17.4321 4.64114C17.8972 3.84105 18.5621 3.16882 19.3648 2.68699C18.8548 1.97594 18.1821 1.39078 17.4 0.977973C16.6178 0.565168 15.7479 0.336096 14.8592 0.308951C12.9635 0.114681 11.1258 1.41641 10.1598 1.41641C9.17506 1.41641 7.68776 0.32824 6.08616 0.360406C5.05021 0.393083 4.04059 0.687191 3.15568 1.21407C2.27077 1.74096 1.54075 2.48265 1.03674 3.36688C-1.14648 7.05727 0.482005 12.4809 2.57338 15.464C3.61975 16.9247 4.84264 18.5563 6.44279 18.4985C8.00863 18.4351 8.59344 17.5237 10.4835 17.5237C12.3561 17.5237 12.9048 18.4985 14.5374 18.4617C16.2176 18.4351 17.2762 16.9945 18.2859 15.5199C19.0377 14.4791 19.6162 13.3288 20 12.1116C19.0238 11.7085 18.1908 11.0338 17.6048 10.1716C17.0187 9.30941 16.7056 8.29787 16.7045 7.26311Z" fill="white"/>
</svg>
