<svg width="71" height="71" viewBox="0 0 71 71" fill="none" xmlns="http://www.w3.org/2000/svg">
<rect x="0.5" y="0.5" width="70" height="70" rx="10" fill="#FFD978"/>
<g clip-path="url(#clip0_568_5686)">
<path d="M59.3283 27.9218C60.6564 29.2499 60.8908 31.2031 59.9533 32.3749L36.8283 59.2499C35.4221 60.8906 33.0002 60.8906 31.3596 59.3281L11.6721 39.6406C10.1096 38.0781 10.1096 35.5781 11.7502 34.1718L38.5471 11.1249C39.7189 10.1093 41.6721 10.4218 43.0002 11.7499L59.3283 27.9218Z" fill="#C18A00"/>
<path d="M50.1875 18.8594L20.3438 48.3125L13.3906 41.3594L44.4844 13.1562L50.1875 18.8594Z" fill="#333333"/>
<path d="M49.0938 24.7969L28.1562 46.2812L33.7812 51.9062L54.0156 29.7188L49.0938 24.7969Z" fill="white"/>
<path d="M37.1405 44.3281C35.9686 43.2344 36.6717 41.2031 37.0624 40.1094C37.7655 38.3906 38.4686 41.6719 38.4686 42.2187C38.6249 43.8594 38.3905 45.5781 37.9999 47.2187C37.7655 48.1562 37.453 49.0156 36.9842 49.875C36.7499 50.4219 36.3592 50.8906 35.8905 51.2031C34.7186 51.9062 34.0155 51.2031 33.7811 49.25C33.9374 48.625 34.1717 48.0781 34.6405 47.6094C36.1249 45.7344 38.4686 44.875 40.1874 43.3906C40.3436 43.2344 40.1092 43 39.953 43.1562C37.9217 44.875 33.703 46.2812 33.4686 49.6406C33.3124 51.8281 35.578 52.375 36.7499 51.125C38.3124 49.4844 38.703 46.5938 38.8592 44.4062C38.9374 43.1563 39.2499 39.5625 37.3749 39.1719C37.2967 39.1719 37.2186 39.1719 37.2186 39.25C36.4374 40.5781 35.4217 43.3125 36.9842 44.7187C37.0624 44.7969 37.2967 44.4844 37.1405 44.3281Z" fill="#4F5B60"/>
<path d="M39.7195 43.0781C41.3601 44.0156 41.8288 40.3438 41.5945 39.3281C41.5945 39.1719 41.3601 39.1719 41.282 39.25C40.4226 39.9531 40.2663 41.8281 40.9695 42.9219C41.0476 43.0781 41.2038 43.0781 41.282 42.9219C41.8288 41.9063 42.1413 40.8906 42.532 39.7969C42.6882 39.3281 43.0788 39.4844 43.3913 39.1719L45.2663 37.2969C46.0476 36.5156 46.282 35.4219 46.9851 34.6406C47.9226 33.625 48.782 33.1563 49.2507 31.75C49.3288 31.4375 49.3288 30.6563 48.782 30.6563C47.6882 30.5781 46.7507 32.8438 48.2351 32.6094C49.9538 32.375 51.5163 30.3438 52.6101 29.25C52.7663 29.0938 52.532 28.8594 52.3757 29.0156C51.8288 29.5625 51.2038 30.1094 50.657 30.5781C50.1882 30.9688 49.7195 31.3594 49.1726 31.75C48.9382 31.9063 46.907 32.8438 48.157 31.3594C48.3913 31.5156 48.6257 31.6719 48.8601 31.9063C48.782 32.0625 48.7038 32.2969 48.6257 32.4531C48.4695 32.7656 48.2351 33.0781 48.0007 33.3906C47.6101 33.9375 46.907 34.25 46.4382 34.7969C45.8132 35.5 45.5788 36.4375 44.9538 37.1406C44.6413 37.4531 43.157 39.4063 42.6101 39.1719C42.532 39.1719 42.4538 39.1719 42.4538 39.25C42.2976 39.7969 42.1413 40.2656 41.907 40.8125C41.8288 40.9688 41.1257 42.4531 41.1257 42.5313C40.8132 41.75 40.8913 40.8125 41.2038 40.1094C41.4382 40.5 41.4382 40.9688 41.282 41.3594C41.1257 42.2969 40.657 42.8438 39.8757 43C39.6413 42.6094 39.4851 42.9219 39.7195 43.0781Z" fill="#4F5B60"/>
</g>
<defs>
<clipPath id="clip0_568_5686">
<rect width="50" height="50" fill="white" transform="translate(10.5 10.5)"/>
</clipPath>
</defs>
</svg>
