<svg width="71" height="70" viewBox="0 0 71 70" fill="none" xmlns="http://www.w3.org/2000/svg">
<rect width="71" height="70" rx="10" fill="#9F84FF"/>
<path fill-rule="evenodd" clip-rule="evenodd" d="M16.75 31.3542C16.75 23.0125 23.5125 16.25 31.8542 16.25H39.1458C47.4875 16.25 54.25 23.0125 54.25 31.3542C54.25 39.6958 47.4875 46.4583 39.1458 46.4583H38.4167V53.75C38.4167 53.75 16.75 50.1042 16.75 31.3542ZM39.3448 23.0021C40.4177 23.7146 41.2271 24.8698 41.2271 26.4187C41.2271 28.0625 40.5635 29.2708 39.4896 30.0104C39.0658 30.2978 38.5978 30.5139 38.1042 30.65V32.2458C38.1042 32.451 38.0637 32.6542 37.9852 32.8438C37.9067 33.0333 37.7916 33.2056 37.6465 33.3507C37.5014 33.4958 37.3292 33.6109 37.1396 33.6894C36.95 33.7679 36.7469 33.8083 36.5417 33.8083C36.3365 33.8083 36.1333 33.7679 35.9437 33.6894C35.7542 33.6109 35.5819 33.4958 35.4368 33.3507C35.2917 33.2056 35.1766 33.0333 35.0981 32.8438C35.0196 32.6542 34.9792 32.451 34.9792 32.2458V29.3323C34.9791 28.9359 35.1297 28.5542 35.4005 28.2647C35.6712 27.9751 36.042 27.7993 36.4375 27.7729C37.0146 27.7344 37.4521 27.6198 37.7167 27.4375C37.8234 27.3667 37.9097 27.2689 37.9667 27.1542C38.0292 27.0292 38.1021 26.8062 38.1021 26.4177C38.1021 26.0927 37.974 25.8427 37.6146 25.6031C37.2062 25.3323 36.55 25.1323 35.7615 25.1073C34.9823 25.0823 34.225 25.2344 33.6677 25.5042C33.1094 25.775 32.9052 26.0792 32.8469 26.3031C32.7996 26.5058 32.7123 26.697 32.5902 26.8655C32.468 27.034 32.3134 27.1764 32.1354 27.2843C31.9575 27.3922 31.7598 27.4635 31.5539 27.4939C31.348 27.5244 31.1381 27.5134 30.9366 27.4617C30.735 27.4099 30.5458 27.3184 30.3801 27.1925C30.2143 27.0666 30.0754 26.9089 29.9715 26.7286C29.8676 26.5483 29.8007 26.349 29.7748 26.1425C29.749 25.936 29.7646 25.7264 29.8208 25.526C30.1792 24.1292 31.225 23.2167 32.3052 22.6927C33.3885 22.1667 34.6625 21.9448 35.8615 21.9833C37.051 22.0208 38.3219 22.3208 39.3448 23.0021ZM36.5417 40.2083C37.0942 40.2083 37.6241 39.9888 38.0148 39.5981C38.4055 39.2074 38.625 38.6775 38.625 38.125C38.625 37.5725 38.4055 37.0426 38.0148 36.6519C37.6241 36.2612 37.0942 36.0417 36.5417 36.0417C35.9891 36.0417 35.4592 36.2612 35.0685 36.6519C34.6778 37.0426 34.4583 37.5725 34.4583 38.125C34.4583 38.6775 34.6778 39.2074 35.0685 39.5981C35.4592 39.9888 35.9891 40.2083 36.5417 40.2083Z" fill="#2906AA"/>
</svg>
