<svg width="71" height="70" viewBox="0 0 71 70" fill="none" xmlns="http://www.w3.org/2000/svg">
<rect x="0.5" width="70" height="70" rx="10" fill="#93E7FE"/>
<path d="M26.1248 30.0333V32.1875L32.6873 27.5L26.1248 23.2812V25.1979C23.4797 25.4364 21.0286 26.6861 19.2821 28.6868C17.5355 30.6875 16.6281 33.2849 16.749 35.938C16.8698 38.591 18.0095 41.0952 19.9307 42.9288C21.8519 44.7624 24.4065 45.7842 27.0623 45.7812C29.4227 45.7812 32.6873 44.95 34.5623 42.9687C36.906 40.2625 39.6998 33.4479 39.6998 33.4479L31.331 38.875C30.4793 39.8339 29.3139 40.458 28.0438 40.6355C26.7736 40.813 25.4817 40.5323 24.3998 39.8437C23.5006 39.2711 22.7915 38.4447 22.3618 37.4691C21.9322 36.4935 21.8015 35.4124 21.9861 34.3625C22.1707 33.3126 22.6624 32.3409 23.399 31.5704C24.1357 30.7998 25.0842 30.265 26.1248 30.0333Z" fill="#007A9B"/>
<path d="M44.8758 39.9667V37.8125L38.3133 42.5L44.8758 46.7188V44.8021C47.5208 44.5636 49.9719 43.3139 51.7185 41.3132C53.4651 39.3125 54.3724 36.7151 54.2516 34.062C54.1307 31.409 52.991 28.9048 51.0698 27.0712C49.1486 25.2376 46.5941 24.2158 43.9383 24.2188C41.5758 24.2188 38.3133 25.05 36.4383 27.0313C34.0945 29.7375 31.3008 36.5521 31.3008 36.5521L39.6674 31.125C40.2316 30.4887 40.9383 29.9948 41.7298 29.6837C42.5213 29.3727 43.3751 29.2533 44.2216 29.3352C45.068 29.4172 45.8831 29.6982 46.6002 30.1554C47.3173 30.6125 47.9161 31.2328 48.3476 31.9656C48.7792 32.6984 49.0313 33.5228 49.0834 34.3716C49.1355 35.2205 48.986 36.0696 48.6473 36.8496C48.3085 37.6296 47.79 38.3184 47.1342 38.8598C46.4784 39.4012 45.7038 39.7798 44.8737 39.9646" fill="#007A9B"/>
</svg>
