<svg width="71" height="70" viewBox="0 0 71 70" fill="none" xmlns="http://www.w3.org/2000/svg">
<rect width="71" height="70" rx="10" fill="#FAA9E4"/>
<path d="M19.0156 40.1562H24.875V43.125H19.0156C18.2344 43.125 17.5312 43.75 17.5312 44.6094C17.5312 45.4688 18.1563 46.0938 19.0156 46.0938H55.5781C56.3594 46.0938 57.0625 46.7188 57.0625 47.5781C57.0625 48.3594 56.4375 49.0625 55.5781 49.0625H18.9375C16.5156 49.0625 14.5625 47.1094 14.5625 44.6875C14.5625 42.1094 16.5938 40.1562 19.0156 40.1562ZM17.9219 30.0781L20.8125 29.8438C20.8125 29.7656 19.0156 19.0625 18.625 16.875C18.3906 15.625 17.9219 12.1094 13.4688 12.1094V15.0781C15.2656 15.0781 15.5 15.7813 15.6562 17.1094C16.125 19.2969 17.9219 29.9219 17.9219 30.0781Z" fill="#B2C1C0"/>
<path d="M17.7653 19.6094H57.3747C58.8591 19.6094 59.0935 21.0156 58.8591 21.7969L54.406 41.6406C54.1716 42.4219 53.3903 43.0469 52.531 43.0469H21.4372C20.656 43.0469 19.8747 42.4219 19.7185 41.5625L16.4372 21.0156C16.3591 20.3125 16.9841 19.6094 17.7653 19.6094ZM55.1091 26.25L55.8903 23.2812C55.9685 22.8906 55.7341 22.5781 55.3435 22.5781H49.7966C49.406 22.5781 49.0153 22.8906 49.0153 23.2812L48.7028 26.25C48.6247 26.6406 48.9372 26.9531 49.3278 26.9531H54.2497C54.6403 26.9531 55.031 26.6406 55.1091 26.25ZM52.6091 33.5156C52.9997 33.5156 53.3903 33.2031 53.5466 32.8125L54.0935 30.5469C54.1716 30.1562 53.9372 29.8438 53.5466 29.8438H49.0935C48.7028 29.8438 48.3122 30.1562 48.3122 30.5469L48.0778 32.7344C47.9997 33.125 48.3122 33.4375 48.7028 33.4375C48.6247 33.5156 52.6091 33.5156 52.6091 33.5156ZM47.9216 40.1562H50.9685C51.3591 40.1562 51.7497 39.8438 51.906 39.4531L52.4528 37.1875C52.531 36.7969 52.2966 36.4844 51.906 36.4844H48.3903C47.9997 36.4844 47.6091 36.7969 47.6091 37.1875L47.3747 39.375C47.2185 39.7656 47.531 40.1562 47.9216 40.1562ZM38.9372 39.375C38.9372 39.7656 39.2497 40.0781 39.6403 40.0781H43.4685C43.8591 40.0781 44.2497 39.7656 44.2497 39.375L44.4841 37.1875C44.5622 36.7969 44.2497 36.4844 43.8591 36.4844H39.6403C39.2497 36.4844 38.9372 36.7969 38.9372 37.1875V39.375ZM38.9372 32.8125C38.9372 33.2031 39.2497 33.5156 39.6403 33.5156H44.1716C44.5622 33.5156 44.9528 33.2031 44.9528 32.8125L45.1872 30.625C45.2653 30.2344 44.9528 29.9219 44.5622 29.9219H39.6403C39.2497 29.9219 38.9372 30.2344 38.9372 30.625V32.8125ZM38.9372 26.25C38.9372 26.6406 39.2497 26.9531 39.6403 26.9531H44.8747C45.2653 26.9531 45.656 26.6406 45.656 26.25L46.0466 23.2812C46.1247 22.8906 45.8122 22.5781 45.4216 22.5781H39.7185C39.3278 22.5781 39.0153 22.8906 39.0153 23.2812C38.9372 23.2812 38.9372 26.25 38.9372 26.25ZM30.9685 39.375C31.0466 39.7656 31.3591 40.0781 31.7497 40.0781H35.1872C35.5778 40.0781 35.8903 39.7656 35.8903 39.375V37.1875C35.8903 36.7969 35.5778 36.4844 35.1872 36.4844H31.3591C30.9685 36.4844 30.656 36.7969 30.7341 37.1875L30.9685 39.375ZM30.2653 32.8125C30.3435 33.2031 30.656 33.5156 31.0466 33.5156H35.1872C35.5778 33.5156 35.8903 33.2031 35.8903 32.8125V30.625C35.8903 30.2344 35.5778 29.9219 35.1872 29.9219H30.656C30.2653 29.9219 29.9528 30.2344 30.031 30.625L30.2653 32.8125ZM29.5622 26.25C29.6403 26.6406 29.9528 26.9531 30.3435 26.9531H35.1872C35.5778 26.9531 35.8903 26.6406 35.8903 26.25V23.2812C35.8903 22.8906 35.5778 22.5781 35.1872 22.5781H29.8747C29.4841 22.5781 29.1716 22.8906 29.2497 23.2812L29.5622 26.25ZM22.7653 39.375C22.8435 39.7656 23.2341 40.0781 23.6247 40.0781H27.3747C27.7653 40.0781 28.0778 39.7656 27.9997 39.375L27.7653 37.1875C27.6872 36.7969 27.3747 36.4844 26.9841 36.4844H22.9997C22.6091 36.4844 22.2966 36.7969 22.3747 37.1875L22.7653 39.375ZM21.7497 32.8125C21.8278 33.2031 22.2185 33.5156 22.6091 33.5156H26.7497C27.1403 33.5156 27.4528 33.2031 27.3747 32.8125L27.1403 30.625C27.0622 30.2344 26.7497 29.9219 26.3591 29.9219H22.0622C21.6716 29.9219 21.3591 30.2344 21.4372 30.625L21.7497 32.8125ZM20.7341 26.25C20.8122 26.6406 21.2028 26.9531 21.5935 26.9531H26.0466C26.4372 26.9531 26.7497 26.6406 26.6716 26.25L26.3591 23.2812C26.281 22.8906 25.9685 22.5781 25.5778 22.5781H20.9685C20.5778 22.5781 20.2653 22.8906 20.3435 23.2812L20.7341 26.25Z" fill="#A50078"/>
<path d="M50.8906 58.4375C48.4744 58.4375 46.5156 56.4787 46.5156 54.0625C46.5156 51.6463 48.4744 49.6875 50.8906 49.6875C53.3069 49.6875 55.2656 51.6463 55.2656 54.0625C55.2656 56.4787 53.3069 58.4375 50.8906 58.4375Z" fill="#62727A"/>
<path d="M50.8906 56.25C49.6825 56.25 48.7031 55.2706 48.7031 54.0625C48.7031 52.8544 49.6825 51.875 50.8906 51.875C52.0987 51.875 53.0781 52.8544 53.0781 54.0625C53.0781 55.2706 52.0987 56.25 50.8906 56.25Z" fill="white"/>
<path d="M24.4844 58.4375C22.0681 58.4375 20.1094 56.4787 20.1094 54.0625C20.1094 51.6463 22.0681 49.6875 24.4844 49.6875C26.9006 49.6875 28.8594 51.6463 28.8594 54.0625C28.8594 56.4787 26.9006 58.4375 24.4844 58.4375Z" fill="#62727A"/>
<path d="M22.2969 54.0625C22.2969 55.3125 23.3125 56.25 24.4844 56.25C25.7344 56.25 26.6719 55.2344 26.6719 54.0625C26.6719 52.8125 25.6563 51.875 24.4844 51.875C23.3125 51.875 22.2969 52.8125 22.2969 54.0625Z" fill="white"/>
<path d="M12.7656 11.5625H14.9531V15.9375H12.7656C12.375 15.9375 12.0625 15.625 12.0625 15.2344V12.2656C12.0625 11.875 12.375 11.5625 12.7656 11.5625Z" fill="#62727A"/>
<path d="M50.8906 48.2031C54.0938 48.2031 56.75 50.8594 56.75 54.0625H45.0313C45.0313 50.7813 47.6094 48.2031 50.8906 48.2031ZM24.4844 48.2031C27.6875 48.2031 30.3438 50.8594 30.3438 54.0625H18.625C18.625 50.7813 21.2812 48.2031 24.4844 48.2031Z" fill="#A50078"/>
</svg>
