<svg width="71" height="70" viewBox="0 0 71 70" fill="none" xmlns="http://www.w3.org/2000/svg">
<rect x="0.5" width="70" height="70" rx="10" fill="#FFA666"/>
<path d="M35.5007 55.8334C30.6743 54.6181 26.6895 51.8487 23.5465 47.5251C20.4034 43.2015 18.8326 38.4015 18.834 33.1251V20.4167L35.5007 14.1667L52.1673 20.4167V33.1251C52.1673 38.4029 50.5965 43.2036 47.4548 47.5272C44.3132 51.8508 40.3284 54.6195 35.5007 55.8334ZM35.5007 51.4584C38.8687 50.4167 41.6812 48.3591 43.9381 45.2855C46.1951 42.2119 47.5145 38.7834 47.8965 35.0001H35.5007V18.5938L23.0007 23.2813V34.0626C23.0007 34.3056 23.0354 34.6181 23.1048 35.0001H35.5007V51.4584Z" fill="#9A4100"/>
</svg>
