<svg width="71" height="70" viewBox="0 0 71 70" fill="none" xmlns="http://www.w3.org/2000/svg">
<rect x="0.5" width="70" height="70" rx="10" fill="#A0FF98"/>
<path d="M29.25 44.375C37.8794 44.375 44.875 37.3794 44.875 28.75C44.875 20.1206 37.8794 13.125 29.25 13.125C20.6206 13.125 13.625 20.1206 13.625 28.75C13.625 37.3794 20.6206 44.375 29.25 44.375Z" fill="#3F51B5"/>
<path d="M31.6452 26.6667V28.4376H27.6868V29.8959H31.6452V31.6667H27.6868C27.6868 32.2917 27.791 32.9167 27.9993 33.3334C28.2077 33.7501 28.416 34.1667 28.7285 34.3751C29.041 34.6876 29.4577 34.7917 29.8743 35.0001C30.291 35.1042 30.8118 35.2084 31.3327 35.2084C31.7493 35.2084 32.0618 35.2084 32.4785 35.1042C32.8952 35.0001 33.2077 35.0001 33.5202 34.7917L33.9368 37.6042C33.5202 37.7084 32.9993 37.8126 32.4785 37.8126C31.9577 37.9167 31.4368 37.9167 30.916 37.9167C29.9785 37.9167 29.041 37.8126 28.2077 37.5001C27.3743 37.2917 26.6452 36.8751 26.1243 36.3542C25.4993 35.8334 25.0827 35.2084 24.666 34.3751C24.3535 33.6459 24.1452 32.7084 24.1452 31.6667H22.166V29.8959H24.1452V28.4376H22.166V26.6667H24.1452C24.2493 25.6251 24.4577 24.7917 24.7702 23.9584C25.1868 23.2292 25.6035 22.5001 26.2285 21.9792C26.8535 21.4584 27.5827 21.0417 28.416 20.8334C29.2493 20.5209 30.1868 20.4167 31.1243 20.4167C31.541 20.4167 32.0618 20.4167 32.4785 20.5209C32.8952 20.6251 33.416 20.6251 33.8327 20.8334L33.416 23.6459C33.1035 23.5417 32.791 23.4376 32.3743 23.3334C31.9577 23.2292 31.6452 23.2292 31.2285 23.2292C30.7077 23.2292 30.1868 23.3334 29.7702 23.4376C29.3535 23.5417 28.9368 23.7501 28.7285 24.0626C28.416 24.3751 28.2077 24.6876 27.9993 25.1042C27.791 25.5209 27.6868 26.0417 27.6868 26.6667H31.6452Z" fill="#FFF59D"/>
<path d="M41.75 56.875C50.3794 56.875 57.375 49.8794 57.375 41.25C57.375 32.6206 50.3794 25.625 41.75 25.625C33.1206 25.625 26.125 32.6206 26.125 41.25C26.125 49.8794 33.1206 56.875 41.75 56.875Z" fill="#4CAF50"/>
<path d="M40.084 38.1251C40.1882 38.3334 40.2923 38.5417 40.5006 38.7501C40.709 38.9584 40.9173 39.1667 41.2298 39.2709C41.5423 39.4792 41.959 39.5834 42.3757 39.7917C43.1048 40.1042 43.834 40.4167 44.459 40.7292C45.084 41.0417 45.6048 41.4584 46.0215 41.8751C46.4381 42.2917 46.8548 42.8126 47.0631 43.3334C47.2715 43.8542 47.4798 44.5834 47.4798 45.3126C47.4798 46.0417 47.3757 46.6667 47.1673 47.1876C46.959 47.7084 46.6465 48.2292 46.2298 48.6459C45.8131 49.0626 45.2923 49.3751 44.7715 49.5834C44.1465 49.7917 43.5215 50.0001 42.8965 50.1042V52.3959H41.0215V50.1042C40.3965 50.0001 39.7715 49.8959 39.1465 49.6876C38.5215 49.4792 38.0007 49.1667 37.584 48.6459C37.0632 48.2292 36.7507 47.6042 36.4382 46.9792C36.1257 46.3542 36.0215 45.5209 36.0215 44.5834H39.459C39.459 45.1042 39.5632 45.6251 39.6673 45.9376C39.7715 46.3542 39.9798 46.5626 40.2923 46.8751C40.5007 47.0834 40.8132 47.2917 41.1257 47.3959C41.4382 47.5001 41.7506 47.5001 42.0631 47.5001C42.4798 47.5001 42.7923 47.5001 43.0007 47.3959C43.3132 47.2917 43.5215 47.1876 43.7298 46.9792C43.9382 46.7709 44.0423 46.5626 44.1465 46.3542C44.2507 46.1459 44.2507 45.8334 44.2507 45.5209C44.2507 45.2084 44.2507 44.8959 44.1465 44.6876C44.0423 44.4792 43.9382 44.1667 43.7298 43.9584C43.5215 43.7501 43.3132 43.5417 43.0007 43.4376C42.6882 43.2292 42.2715 43.1251 41.8548 42.9167C41.1257 42.6042 40.3965 42.2917 39.7715 41.9792C39.1465 41.6667 38.6257 41.2501 38.209 40.8334C37.7923 40.4167 37.3757 39.8959 37.1673 39.3751C36.959 38.8542 36.7507 38.1251 36.7507 37.3959C36.7507 36.7709 36.8548 36.1459 37.0632 35.6251C37.2715 35.1042 37.584 34.5834 38.0007 34.1667C38.4173 33.7501 38.9382 33.4376 39.459 33.1251C39.9798 32.9167 40.709 32.7084 41.334 32.6042V30.1042H43.209V32.6042C43.834 32.7084 44.459 32.9167 45.084 33.2292C45.6048 33.5417 46.1257 33.8542 46.4382 34.3751C46.8548 34.7917 47.1673 35.4167 47.3757 36.0417C47.584 36.6667 47.6882 37.3959 47.6882 38.1251H44.2507C44.2507 37.1876 44.0423 36.4584 43.6256 36.0417C43.209 35.6251 42.6881 35.3126 42.0631 35.3126C41.7506 35.3126 41.4382 35.4167 41.1257 35.5209C40.9173 35.6251 40.709 35.7292 40.5006 35.9376C40.2923 36.1459 40.1882 36.3542 40.1882 36.5626C40.084 36.7709 40.084 37.0834 40.084 37.3959C39.9798 37.6042 40.084 37.9167 40.084 38.1251Z" fill="white"/>
</svg>
